<svg id="Location2_tr" data-name="Location2 tr" xmlns="http://www.w3.org/2000/svg" viewBox="0 0 47.52 63.8"><defs><style>.cls-1{fill:#fff;}</style></defs><path class="cls-1" d="M273.16,213.44a15,15,0,0,0-11.76,5.68,15,15,0,0,0,23.41-.13A15,15,0,0,0,273.16,213.44Z" transform="translate(-249.24 -186.48)"/><path class="cls-1" d="M273.16,205.52a15,15,0,0,0,11.55-5.41,15,15,0,0,0-23.19-.13A15,15,0,0,0,273.16,205.52Z" transform="translate(-249.24 -186.48)"/><path class="cls-1" d="M273.16,208.5a17.91,17.91,0,0,1-13.36-6,15,15,0,0,0-.09,14,18,18,0,0,1,26.77-.14,15,15,0,0,0-.08-13.7A18,18,0,0,1,273.16,208.5Z" transform="translate(-249.24 -186.48)"/><path class="cls-1" d="M273,186.48a23.78,23.78,0,0,0-23,29.7c2.79,12.72,10.58,24.26,23,34.1,12.43-9.84,20.22-21.38,23-34.1a23.78,23.78,0,0,0-23-29.7ZM288.44,219h0c-.28.46-.58.91-.9,1.34v0c-.32.43-.66.85-1,1.25h0a18,18,0,0,1-26.77.14h0c-.37-.4-.71-.81-1-1.24h0c-.32-.43-.63-.88-.91-1.34h0a17.9,17.9,0,0,1,.08-19.16h0c.29-.45.59-.89.92-1.31v0a18,18,0,0,1,27.64-1.08h0c.35.4.69.81,1,1.24h0a17.9,17.9,0,0,1,1,20.16Z" transform="translate(-249.24 -186.48)"/></svg>